# xmcd
#
# Track frame offsets: 
#        150
#        21855
#        43716
#        68621
#        88074
#        110669
#        139157
#        157289
#        177977
#        203200
#        212137
#        236420
#        256325
#        277093
#        303846
#        323104
#        339050
#
# Disc length: 4791 seconds
#
# Revision: 0
# Processed by: cddbd v1.5.1PL0 Copyright (c) Steve Scherf et al.
# Submitted via: ExactAudioCopy v0.95a5
#
DISCID=f712b511
DTITLE=Seal - Seal
DYEAR=2004
DGENRE=Soul
TTITLE0=Crazy
TTITLE1=Kiss From A Rose
TTITLE2=Prayer For Dying
TTITLE3=When A Man Is Wrong 
TTITLE4=State Of Grace
TTITLE5=Don't Cry
TTITLE6=Bring It On
TTITLE7=Human Beings
TTITLE8=Out Of The Window
TTITLE9=Princess
TTITLE10=Colour
TTITLE11=Hey Joe
TTITLE12=Lost My Faith
TTITLE13=Still Love Remains
TTITLE14=Just Like You Said
TTITLE15=Crazy (Acoustic Version)
TTITLE16=Adios Ayer (fresh mix)
EXTD=
EXTT0=
EXTT1=
EXTT2=
EXTT3=
EXTT4=
EXTT5=
EXTT6=
EXTT7=
EXTT8=
EXTT9=
EXTT10=
EXTT11=
EXTT12=
EXTT13=
EXTT14=
EXTT15=
EXTT16=
PLAYORDER=
